<svg width="20" height="20" viewBox="0 0 20 20" fill="none" xmlns="http://www.w3.org/2000/svg">
<g clip-path="url(#clip0_1_443)">
<path d="M16.6667 9.16671C16.4629 7.70022 15.7826 6.34142 14.7305 5.29962C13.6785 4.25782 12.3131 3.59081 10.8447 3.40133C9.37632 3.21186 7.88635 3.51044 6.60434 4.25108C5.32232 4.99171 4.31938 6.13332 3.75 7.50004M3.33334 4.16671V7.50004H6.66667" stroke="black" stroke-width="2" stroke-linecap="round" stroke-linejoin="round"/>
<path d="M3.33334 10.8334C3.53714 12.2999 4.21745 13.6587 5.26947 14.7005C6.3215 15.7423 7.68687 16.4093 9.15528 16.5987C10.6237 16.7882 12.1136 16.4896 13.3957 15.749C14.6777 15.0084 15.6806 13.8668 16.25 12.5M16.6667 15.8334V12.5H13.3333" stroke="black" stroke-width="2" stroke-linecap="round" stroke-linejoin="round"/>
</g>
<defs>
<clipPath id="clip0_1_443">
<rect width="20" height="20" fill="white"/>
</clipPath>
</defs>
</svg>
